<svg height="558" viewBox="0 0 178 558" width="178" xmlns="http://www.w3.org/2000/svg" xmlns:xlink="http://www.w3.org/1999/xlink"><clipPath id="a"><path d="m0 0h178v558h-178z"/></clipPath><g clip-path="url(#a)" fill="#0d6aa4" opacity=".1"><circle cx="2" cy="2" r="2"/><circle cx="2" cy="2" r="2" transform="translate(24)"/><circle cx="2" cy="2" r="2" transform="translate(48)"/><circle cx="2" cy="2" r="2" transform="translate(72)"/><circle cx="2" cy="2" r="2" transform="translate(96)"/><circle cx="2" cy="2" r="2" transform="translate(120)"/><circle cx="2" cy="2" r="2" transform="translate(144)"/><circle cx="2" cy="2" r="2" transform="translate(168)"/><circle cx="2" cy="2" r="2" transform="translate(0 24)"/><circle cx="2" cy="2" r="2" transform="translate(24 24)"/><circle cx="2" cy="2" r="2" transform="translate(48 24)"/><circle cx="2" cy="2" r="2" transform="translate(72 24)"/><circle cx="2" cy="2" r="2" transform="translate(96 24)"/><circle cx="2" cy="2" r="2" transform="translate(120 24)"/><circle cx="2" cy="2" r="2" transform="translate(144 24)"/><circle cx="2" cy="2" r="2" transform="translate(168 24)"/><circle cx="2" cy="2" r="2" transform="translate(0 48)"/><circle cx="2" cy="2" r="2" transform="translate(24 48)"/><circle cx="2" cy="2" r="2" transform="translate(48 48)"/><circle cx="2" cy="2" r="2" transform="translate(72 48)"/><circle cx="2" cy="2" r="2" transform="translate(96 48)"/><circle cx="2" cy="2" r="2" transform="translate(120 48)"/><circle cx="2" cy="2" r="2" transform="translate(144 48)"/><circle cx="2" cy="2" r="2" transform="translate(168 48)"/><circle cx="2" cy="2" r="2" transform="translate(0 72)"/><circle cx="2" cy="2" r="2" transform="translate(24 72)"/><circle cx="2" cy="2" r="2" transform="translate(48 72)"/><circle cx="2" cy="2" r="2" transform="translate(72 72)"/><circle cx="2" cy="2" r="2" transform="translate(96 72)"/><circle cx="2" cy="2" r="2" transform="translate(120 72)"/><circle cx="2" cy="2" r="2" transform="translate(144 72)"/><circle cx="2" cy="2" r="2" transform="translate(168 72)"/><circle cx="2" cy="2" r="2" transform="translate(0 96)"/><circle cx="2" cy="2" r="2" transform="translate(24 96)"/><circle cx="2" cy="2" r="2" transform="translate(48 96)"/><circle cx="2" cy="2" r="2" transform="translate(72 96)"/><circle cx="2" cy="2" r="2" transform="translate(96 96)"/><circle cx="2" cy="2" r="2" transform="translate(120 96)"/><circle cx="2" cy="2" r="2" transform="translate(144 96)"/><circle cx="2" cy="2" r="2" transform="translate(168 96)"/><circle cx="2" cy="2" r="2" transform="translate(0 120)"/><circle cx="2" cy="2" r="2" transform="translate(24 120)"/><circle cx="2" cy="2" r="2" transform="translate(48 120)"/><circle cx="2" cy="2" r="2" transform="translate(72 120)"/><circle cx="2" cy="2" r="2" transform="translate(96 120)"/><circle cx="2" cy="2" r="2" transform="translate(120 120)"/><circle cx="2" cy="2" r="2" transform="translate(144 120)"/><circle cx="2" cy="2" r="2" transform="translate(168 120)"/><circle cx="2" cy="2" r="2" transform="translate(0 144)"/><circle cx="2" cy="2" r="2" transform="translate(24 144)"/><circle cx="2" cy="2" r="2" transform="translate(48 144)"/><circle cx="2" cy="2" r="2" transform="translate(72 144)"/><circle cx="2" cy="2" r="2" transform="translate(96 144)"/><circle cx="2" cy="2" r="2" transform="translate(120 144)"/><circle cx="2" cy="2" r="2" transform="translate(144 144)"/><circle cx="2" cy="2" r="2" transform="translate(168 144)"/><circle cx="2" cy="2" r="2" transform="translate(0 168)"/><circle cx="2" cy="2" r="2" transform="translate(24 168)"/><circle cx="2" cy="2" r="2" transform="translate(48 168)"/><circle cx="2" cy="2" r="2" transform="translate(72 168)"/><circle cx="2" cy="2" r="2" transform="translate(96 168)"/><circle cx="2" cy="2" r="2" transform="translate(120 168)"/><circle cx="2" cy="2" r="2" transform="translate(144 168)"/><circle cx="2" cy="2" r="2" transform="translate(168 168)"/><circle cx="2" cy="2" r="2" transform="translate(0 192)"/><circle cx="2" cy="2" r="2" transform="translate(24 192)"/><circle cx="2" cy="2" r="2" transform="translate(48 192)"/><circle cx="2" cy="2" r="2" transform="translate(72 192)"/><circle cx="2" cy="2" r="2" transform="translate(96 192)"/><circle cx="2" cy="2" r="2" transform="translate(120 192)"/><circle cx="2" cy="2" r="2" transform="translate(144 192)"/><circle cx="2" cy="2" r="2" transform="translate(168 192)"/><circle cx="2" cy="2" r="2" transform="translate(0 216)"/><circle cx="2" cy="2" r="2" transform="translate(24 216)"/><circle cx="2" cy="2" r="2" transform="translate(48 216)"/><circle cx="2" cy="2" r="2" transform="translate(72 216)"/><circle cx="2" cy="2" r="2" transform="translate(96 216)"/><circle cx="2" cy="2" r="2" transform="translate(120 216)"/><circle cx="2" cy="2" r="2" transform="translate(144 216)"/><circle cx="2" cy="2" r="2" transform="translate(168 216)"/><circle cx="2" cy="2" r="2" transform="translate(0 240)"/><circle cx="2" cy="2" r="2" transform="translate(24 240)"/><circle cx="2" cy="2" r="2" transform="translate(48 240)"/><circle cx="2" cy="2" r="2" transform="translate(72 240)"/><circle cx="2" cy="2" r="2" transform="translate(96 240)"/><circle cx="2" cy="2" r="2" transform="translate(120 240)"/><circle cx="2" cy="2" r="2" transform="translate(144 240)"/><circle cx="2" cy="2" r="2" transform="translate(168 240)"/><circle cx="2" cy="2" r="2" transform="translate(0 264)"/><circle cx="2" cy="2" r="2" transform="translate(24 264)"/><circle cx="2" cy="2" r="2" transform="translate(48 264)"/><circle cx="2" cy="2" r="2" transform="translate(72 264)"/><circle cx="2" cy="2" r="2" transform="translate(96 264)"/><circle cx="2" cy="2" r="2" transform="translate(120 264)"/><circle cx="2" cy="2" r="2" transform="translate(144 264)"/><circle cx="2" cy="2" r="2" transform="translate(168 264)"/><circle cx="2" cy="2" r="2" transform="translate(0 288)"/><circle cx="2" cy="2" r="2" transform="translate(24 288)"/><circle cx="2" cy="2" r="2" transform="translate(48 288)"/><circle cx="2" cy="2" r="2" transform="translate(72 288)"/><circle cx="2" cy="2" r="2" transform="translate(96 288)"/><circle cx="2" cy="2" r="2" transform="translate(120 288)"/><circle cx="2" cy="2" r="2" transform="translate(144 288)"/><circle cx="2" cy="2" r="2" transform="translate(168 288)"/><circle cx="2" cy="2" r="2" transform="translate(0 312)"/><circle cx="2" cy="2" r="2" transform="translate(24 312)"/><circle cx="2" cy="2" r="2" transform="translate(48 312)"/><circle cx="2" cy="2" r="2" transform="translate(72 312)"/><circle cx="2" cy="2" r="2" transform="translate(96 312)"/><circle cx="2" cy="2" r="2" transform="translate(120 312)"/><circle cx="2" cy="2" r="2" transform="translate(144 312)"/><circle cx="2" cy="2" r="2" transform="translate(168 312)"/><circle cx="2" cy="2" r="2" transform="translate(0 336)"/><circle cx="2" cy="2" r="2" transform="translate(24 336)"/><circle cx="2" cy="2" r="2" transform="translate(48 336)"/><circle cx="2" cy="2" r="2" transform="translate(72 336)"/><circle cx="2" cy="2" r="2" transform="translate(96 336)"/><circle cx="2" cy="2" r="2" transform="translate(120 336)"/><circle cx="2" cy="2" r="2" transform="translate(144 336)"/><circle cx="2" cy="2" r="2" transform="translate(168 336)"/><circle cx="2" cy="2" r="2" transform="translate(0 360)"/><circle cx="2" cy="2" r="2" transform="translate(24 360)"/><circle cx="2" cy="2" r="2" transform="translate(48 360)"/><circle cx="2" cy="2" r="2" transform="translate(72 360)"/><circle cx="2" cy="2" r="2" transform="translate(96 360)"/><circle cx="2" cy="2" r="2" transform="translate(120 360)"/><circle cx="2" cy="2" r="2" transform="translate(144 360)"/><circle cx="2" cy="2" r="2" transform="translate(168 360)"/><circle cx="2" cy="2" r="2" transform="translate(0 384)"/><circle cx="2" cy="2" r="2" transform="translate(24 384)"/><circle cx="2" cy="2" r="2" transform="translate(48 384)"/><circle cx="2" cy="2" r="2" transform="translate(72 384)"/><circle cx="2" cy="2" r="2" transform="translate(96 384)"/><circle cx="2" cy="2" r="2" transform="translate(120 384)"/><circle cx="2" cy="2" r="2" transform="translate(144 384)"/><circle cx="2" cy="2" r="2" transform="translate(168 384)"/><circle cx="2" cy="2" r="2" transform="translate(0 408)"/><circle cx="2" cy="2" r="2" transform="translate(24 408)"/><circle cx="2" cy="2" r="2" transform="translate(48 408)"/><circle cx="2" cy="2" r="2" transform="translate(72 408)"/><circle cx="2" cy="2" r="2" transform="translate(96 408)"/><circle cx="2" cy="2" r="2" transform="translate(120 408)"/><circle cx="2" cy="2" r="2" transform="translate(144 408)"/><circle cx="2" cy="2" r="2" transform="translate(168 408)"/><circle cx="2" cy="2" r="2" transform="translate(0 432)"/><circle cx="2" cy="2" r="2" transform="translate(24 432)"/><circle cx="2" cy="2" r="2" transform="translate(48 432)"/><circle cx="2" cy="2" r="2" transform="translate(72 432)"/><circle cx="2" cy="2" r="2" transform="translate(96 432)"/><circle cx="2" cy="2" r="2" transform="translate(120 432)"/><circle cx="2" cy="2" r="2" transform="translate(144 432)"/><circle cx="2" cy="2" r="2" transform="translate(168 432)"/><circle cx="2" cy="2" r="2" transform="translate(0 456)"/><circle cx="2" cy="2" r="2" transform="translate(24 456)"/><circle cx="2" cy="2" r="2" transform="translate(48 456)"/><circle cx="2" cy="2" r="2" transform="translate(72 456)"/><circle cx="2" cy="2" r="2" transform="translate(96 456)"/><circle cx="2" cy="2" r="2" transform="translate(120 456)"/><circle cx="2" cy="2" r="2" transform="translate(144 456)"/><circle cx="2" cy="2" r="2" transform="translate(168 456)"/><circle cx="2" cy="2" r="2" transform="translate(0 480)"/><circle cx="2" cy="2" r="2" transform="translate(24 480)"/><circle cx="2" cy="2" r="2" transform="translate(48 480)"/><circle cx="2" cy="2" r="2" transform="translate(72 480)"/><circle cx="2" cy="2" r="2" transform="translate(96 480)"/><circle cx="2" cy="2" r="2" transform="translate(120 480)"/><circle cx="2" cy="2" r="2" transform="translate(144 480)"/><circle cx="2" cy="2" r="2" transform="translate(168 480)"/><circle cx="2" cy="2" r="2" transform="translate(0 504)"/><circle cx="2" cy="2" r="2" transform="translate(24 504)"/><circle cx="2" cy="2" r="2" transform="translate(48 504)"/><circle cx="2" cy="2" r="2" transform="translate(72 504)"/><circle cx="2" cy="2" r="2" transform="translate(96 504)"/><circle cx="2" cy="2" r="2" transform="translate(120 504)"/><circle cx="2" cy="2" r="2" transform="translate(144 504)"/><circle cx="2" cy="2" r="2" transform="translate(168 504)"/><circle cx="2" cy="2" r="2" transform="translate(0 528)"/><circle cx="2" cy="2" r="2" transform="translate(24 528)"/><circle cx="2" cy="2" r="2" transform="translate(48 528)"/><circle cx="2" cy="2" r="2" transform="translate(72 528)"/><circle cx="2" cy="2" r="2" transform="translate(96 528)"/><circle cx="2" cy="2" r="2" transform="translate(120 528)"/><circle cx="2" cy="2" r="2" transform="translate(144 528)"/><circle cx="2" cy="2" r="2" transform="translate(168 528)"/><circle cx="2" cy="2" r="2" transform="translate(0 552)"/><circle cx="2" cy="2" r="2" transform="translate(24 552)"/><circle cx="2" cy="2" r="2" transform="translate(48 552)"/><circle cx="2" cy="2" r="2" transform="translate(72 552)"/><circle cx="2" cy="2" r="2" transform="translate(96 552)"/><circle cx="2" cy="2" r="2" transform="translate(120 552)"/><circle cx="2" cy="2" r="2" transform="translate(144 552)"/><circle cx="2" cy="2" r="2" transform="translate(168 552)"/></g></svg>