<svg xmlns="http://www.w3.org/2000/svg" width="28.95" height="29.003" viewBox="0 0 28.95 29.003"><path d="M29.116,22.466V26.38a2.609,2.609,0,0,1-2.844,2.609,25.82,25.82,0,0,1-11.259-4.005,25.441,25.441,0,0,1-7.828-7.828A25.82,25.82,0,0,1,3.178,5.844,2.609,2.609,0,0,1,5.775,3H9.689A2.609,2.609,0,0,1,12.3,5.244a16.752,16.752,0,0,0,.913,3.666,2.609,2.609,0,0,1-.587,2.753L10.967,13.32A20.875,20.875,0,0,0,18.8,21.148l1.657-1.657a2.609,2.609,0,0,1,2.753-.587,16.752,16.752,0,0,0,3.666.913,2.609,2.609,0,0,1,2.244,2.649Z" transform="translate(-1.667 -1.5)" fill="none" stroke="#fff" stroke-linecap="round" stroke-linejoin="round" stroke-width="3"/></svg>