<svg height="179" viewBox="0 0 178 179" width="178" xmlns="http://www.w3.org/2000/svg" xmlns:xlink="http://www.w3.org/1999/xlink"><clipPath id="a"><path d="m0 0h178v179h-178z"/></clipPath><g clip-path="url(#a)" fill="#fff" opacity=".995"><circle cx="2" cy="2" r="2"/><circle cx="2" cy="2" r="2" transform="translate(24)"/><circle cx="2" cy="2" r="2" transform="translate(48)"/><circle cx="2" cy="2" r="2" transform="translate(72)"/><circle cx="2" cy="2" r="2" transform="translate(96)"/><circle cx="2" cy="2" r="2" transform="translate(120)"/><circle cx="2" cy="2" r="2" transform="translate(144)"/><circle cx="2" cy="2" r="2" transform="translate(168)"/><circle cx="2" cy="2" r="2" transform="translate(0 24)"/><circle cx="2" cy="2" r="2" transform="translate(24 24)"/><circle cx="2" cy="2" r="2" transform="translate(48 24)"/><circle cx="2" cy="2" r="2" transform="translate(72 24)"/><circle cx="2" cy="2" r="2" transform="translate(96 24)"/><circle cx="2" cy="2" r="2" transform="translate(120 24)"/><circle cx="2" cy="2" r="2" transform="translate(144 24)"/><circle cx="2" cy="2" r="2" transform="translate(168 24)"/><circle cx="2" cy="2" r="2" transform="translate(0 48)"/><circle cx="2" cy="2" r="2" transform="translate(24 48)"/><circle cx="2" cy="2" r="2" transform="translate(48 48)"/><circle cx="2" cy="2" r="2" transform="translate(72 48)"/><circle cx="2" cy="2" r="2" transform="translate(96 48)"/><circle cx="2" cy="2" r="2" transform="translate(120 48)"/><circle cx="2" cy="2" r="2" transform="translate(144 48)"/><circle cx="2" cy="2" r="2" transform="translate(168 48)"/><circle cx="2" cy="2" r="2" transform="translate(0 72)"/><circle cx="2" cy="2" r="2" transform="translate(24 72)"/><circle cx="2" cy="2" r="2" transform="translate(48 72)"/><circle cx="2" cy="2" r="2" transform="translate(72 72)"/><circle cx="2" cy="2" r="2" transform="translate(96 72)"/><circle cx="2" cy="2" r="2" transform="translate(120 72)"/><circle cx="2" cy="2" r="2" transform="translate(144 72)"/><circle cx="2" cy="2" r="2" transform="translate(168 72)"/><circle cx="2" cy="2" r="2" transform="translate(0 96)"/><circle cx="2" cy="2" r="2" transform="translate(24 96)"/><circle cx="2" cy="2" r="2" transform="translate(48 96)"/><circle cx="2" cy="2" r="2" transform="translate(72 96)"/><circle cx="2" cy="2" r="2" transform="translate(96 96)"/><circle cx="2" cy="2" r="2" transform="translate(120 96)"/><circle cx="2" cy="2" r="2" transform="translate(144 96)"/><circle cx="2" cy="2" r="2" transform="translate(168 96)"/><circle cx="2" cy="2" r="2" transform="translate(0 120)"/><circle cx="2" cy="2" r="2" transform="translate(24 120)"/><circle cx="2" cy="2" r="2" transform="translate(48 120)"/><circle cx="2" cy="2" r="2" transform="translate(72 120)"/><circle cx="2" cy="2" r="2" transform="translate(96 120)"/><circle cx="2" cy="2" r="2" transform="translate(120 120)"/><circle cx="2" cy="2" r="2" transform="translate(144 120)"/><circle cx="2" cy="2" r="2" transform="translate(168 120)"/><circle cx="2" cy="2" r="2" transform="translate(0 144)"/><circle cx="2" cy="2" r="2" transform="translate(24 144)"/><circle cx="2" cy="2" r="2" transform="translate(48 144)"/><circle cx="2" cy="2" r="2" transform="translate(72 144)"/><circle cx="2" cy="2" r="2" transform="translate(96 144)"/><circle cx="2" cy="2" r="2" transform="translate(120 144)"/><circle cx="2" cy="2" r="2" transform="translate(144 144)"/><circle cx="2" cy="2" r="2" transform="translate(168 144)"/><circle cx="2" cy="2" r="2" transform="translate(0 168)"/><circle cx="2" cy="2" r="2" transform="translate(24 168)"/><circle cx="2" cy="2" r="2" transform="translate(48 168)"/><circle cx="2" cy="2" r="2" transform="translate(72 168)"/><circle cx="2" cy="2" r="2" transform="translate(96 168)"/><circle cx="2" cy="2" r="2" transform="translate(120 168)"/><circle cx="2" cy="2" r="2" transform="translate(144 168)"/><circle cx="2" cy="2" r="2" transform="translate(168 168)"/></g></svg>